<svg xmlns="http://www.w3.org/2000/svg" width="256" height="256">
  <defs>
    <linearGradient id="a" gradientUnits="userSpaceOnUse" x1="-133.537" y1="260.535" x2="54.222" y2="90.794" gradientTransform="rotate(-57.86)">
      <stop offset="1" stop-color="#FB7D00"/>
      <stop offset="0" stop-color="#43210C"/>
    </linearGradient>
    <clipPath id="b">
      <path d="M149.846.904c17.85.742 35.004 5.58 50.26 14.813 52.232 32.8 70.634 109.158 31.64 171.254-38.995 62.1-120.62 86.42-172.852 53.62S-15.978 130.068 23.017 67.97C45.477 32.613 83.792 8.33 125.195 2.236c11.057-1.628 13.557-1.26 24.65-1.33z"/>
    </clipPath>
    <filter id="c">
      <feGaussianBlur in="SourceAlpha" stdDeviation="25"/>
      <feOffset dy="-15" result="offsetblur"/>
      <feFlood flood-color="#000"/>
      <feComposite in2="offsetblur" operator="in"/>
    </filter>
  </defs>
  <path d="M231.746 186.97c-38.995 62.097-120.62 86.416-172.852 53.616S-15.978 130.066 23.017 67.97c38.995-62.094 124.858-85.052 177.09-52.25 52.23 32.8 70.633 109.157 31.64 171.253z" fill="url(#a)"/>
  <path d="M149.846.904c17.85.742 35.004 5.58 50.26 14.813 52.232 32.8 70.634 109.158 31.64 171.254-38.995 62.1-120.62 86.42-172.852 53.62S-15.978 130.068 23.017 67.97C45.477 32.613 83.792 8.33 125.195 2.236c11.057-1.628 13.557-1.26 24.65-1.33zm-1.09 5.906C100.52 6.343 54.36 30.506 28.096 71.162c-17.773 28.304-22.855 61.31-15.51 92.736 7.04 30.118 25.018 56.234 49.497 71.607 49.61 31.154 127.517 7.295 164.58-51.725 36.144-57.556 21.32-130.912-29.75-162.98-11.116-6.953-23.712-11.18-36.68-13-3.803-.53-7.653-.66-11.48-.99z" fill="#713500"/>
  <path d="M-47.65-65.096h351.3v386.303h-351.3zm197.496 66c-11.094.072-13.594-.297-24.65 1.33-41.406 6.096-79.72 30.38-102.18 65.738C-15.98 130.07 6.66 207.788 58.892 240.588c52.23 32.8 133.857 8.48 172.852-53.615 38.994-62.095 20.592-138.452-31.64-171.253-15.256-9.234-32.41-14.07-50.26-14.813z" clip-path="url(#b)" filter="url(#c)" fill="rgba(0,0,0,0.75)"/>
  <path d="M154.5 67c-7.456 0-13.5-5.82-13.5-13s6.044-13 13.5-13S168 46.82 168 54s-6.044 13-13.5 13zm29 34c-7.456 0-13.5-5.82-13.5-13s6.044-13 13.5-13S197 80.82 197 88s-6.044 13-13.5 13zm12-37c-7.456 0-13.5-5.82-13.5-13s6.044-13 13.5-13S209 43.82 209 51s-6.044 13-13.5 13z" fill="#270E03" opacity=".5"/>
  <path d="M20.06 186.163C14.06 78.163 63.5 26 126.5 14.5M32.403 208.296C37.403 77.296 97.5 36 168.5 20M41.767 219.362c24-78 37.733-111.862 92.733-151.862M51.557 228.726c35-70 62.943-43.226 103.943-135.226M64.326 236.813c68-43 86.174-78.313 106.174-116.313M79.223 244.475c76-28 111.277-90.975 123.277-134.975m-86.247 139.23c55-7 131.247-87.23 120.247-160.23M97.525 248.73c57-13 140.01-81.23 121.975-181.23" stroke="#271002" opacity=".25" fill="none"/>
</svg>

